# xmcd
#
# Track frame offsets:
#	150
#	12108
#	20594
#	31715
#	42761
#	53329
#	62848
#	74187
#	86334
#	95620
#	111591
#	123768
#	136780
#	147872
#	157194
#	167583
#	177507
#	189881
#	202047
#	212368
#
# Disc length: 3011 seconds
#
# Revision: 0
# Processed by: cddbd v1.5.2PL0 Copyright (c) Steve Scherf et al.
# Submitted via: EasyCDDAExtractor 10.1.0.1
#
DISCID=100bc114
DTITLE=Gene Autry - The singin' Cowboy
DYEAR=1999
DGENRE=Country
TTITLE0=Cool water
TTITLE1=I'm an old cowhand
TTITLE2=half as much
TTITLE3=your cheatin' heart
TTITLE4=Blue eyes crying
TTITLE5=Sierra sue
TTITLE6=That little boy of mine
TTITLE7=Till i walz again with you
TTITLE8=Gone fishin'
TTITLE9=The missouri waltz
TTITLE10=Harbour lights
TTITLE11=You can't bi true dear
TTITLE12=Marcheta
TTITLE13=Ramona
TTITLE14=You're the one rose that's left in my heart
TTITLE15=It happened in monterey
TTITLE16=Goldmine in the sky
TTITLE17=Bless this house
TTITLE18=May the good lord bless and keep you
TTITLE19=Vaya con dios
EXTD=
EXTT0=
EXTT1=
EXTT2=
EXTT3=
EXTT4=
EXTT5=
EXTT6=
EXTT7=
EXTT8=
EXTT9=
EXTT10=
EXTT11=
EXTT12=
EXTT13=
EXTT14=
EXTT15=
EXTT16=
EXTT17=
EXTT18=
EXTT19=
PLAYORDER=
